<svg xmlns="http://www.w3.org/2000/svg" viewBox="0 0 250.11 807.14">
	<defs>
		<style>
			.cls-1,
			.cls-10,
			.cls-13,
			.cls-14,
			.cls-2,
			.cls-3,
			.cls-6 {
				fill: none;
			}

			.cls-1,
			.cls-13,
			.cls-2,
			.cls-5,
			.cls-6 {
				stroke: #000;
			}

			.cls-1,
			.cls-10,
			.cls-11,
			.cls-13,
			.cls-14,
			.cls-2,
			.cls-3,
			.cls-5,
			.cls-6,
			.cls-7,
			.cls-9 {
				stroke-miterlimit: 10;
			}

			.cls-1 {
				stroke-width: 14px;
			}

			.cls-3 {
				stroke: #d40800;
				stroke-width: 8px;
			}

			.cls-4 {
				fill: #333;
			}

			.cls-5,
			.cls-7,
			.cls-9 {
				fill: #d7d7d7;
			}

			.cls-5,
			.cls-6,
			.cls-7 {
				stroke-width: 2px;
			}

			.cls-10,
			.cls-11,
			.cls-14,
			.cls-7,
			.cls-9 {
				stroke: #222;
			}

			.cls-8 {
				fill: #222;
			}

			.cls-10,
			.cls-13 {
				stroke-width: 0.5px;
			}

			.cls-11 {
				fill: #fbfbfb;
			}

			.cls-12 {
				fill: #fff;
			}
		</style>

		<path id="leg-top" class="cls-5"
			d="M53.32,514.16s59.48,57,89.41,67.76c-10,2.7-31.89,16.56-51.84,58.14-4.83,7.62-2.74,13.09-2.74,13.09s39.13.77,41.48,0,4-10-3.88-10-15-1.48-13.4-3.63,74.8-58,80.67-63.75-34.86-48.09-62.27-70.28" />
		<path id="leg-top-left" class="cls-5"
			d="M53.32,514.16s24.7,44,44.52,72.19c-10,2.69-29.78,29.48-49.74,71.06-4.82,7.62-2.74,13.09-2.74,13.09s39.13.77,41.48,0,4-10-3.87-10-15-1.48-13.41-3.63,74.8-58,80.67-63.75,7.93-65.44-19.48-87.63" />
		<path id="leg-left" class="cls-5"
			d="M53.32,514.16S75.43,582.3,94.71,623.39c-10,2.7-39.81,34.17-59.77,75.75-4.83,7.62-2.74,13.09-2.74,13.09s39.13.77,41.48,0,4-10-3.88-10-15-1.48-13.4-3.62,74.8-58,80.67-63.75,21.09-107.18-6.32-129.37" />
		<path id="leg-bottom-left" class="cls-5"
			d="M53.32,514.16s18.51,119.32,48.44,130.1c-10,2.69-30.05,49.17-50,90.75C46.93,742.63,49,748.1,49,748.1s39.13.77,41.47,0,4-10-3.87-10-15-1.48-13.4-3.63,65.19-71.38,71.06-77.16,13.88-129.63-13.53-151.82" />
		<path id="leg-bottom-right" class="cls-5"
			d="M53.32,514.16s92.46,136,122.39,146.8c-10,2.69-24.56,39.3-44.52,80.88-4.83,7.62-2.74,13.1-2.74,13.1s39.13.77,41.48,0,4-10-3.88-10-15-1.47-13.4-3.62,58.67-78.09,64.54-83.87-59-129.76-86.44-151.95" />
		<path id="leg-right" class="cls-5"
			d="M53.32,514.16s110.33,105.2,140.27,116c-10,2.69-26.91,27.67-46.86,69.25C141.9,707,144,712.48,144,712.48s39.13.77,41.47,0,4-10-3.87-10-15-1.48-13.4-3.63,74.8-58,80.67-63.75-90.7-107.42-118.11-129.61" />
		<path id="leg-top-right" class="cls-5"
			d="M53.32,514.16S153.21,578,183.15,588.81c-10,2.7-32.05,28.32-52,69.9-4.83,7.62-2.74,13.09-2.74,13.09s39.13.77,41.48,0,4-10-3.88-10-15-1.48-13.4-3.62,72.74-68.92,78.6-74.69-73.05-55.81-100.46-78" />
		<path id="leg-bottom" class="cls-5"
			d="M50.89,514.22S73.57,626.78,100.19,663c-10.7,9.13,10.65,53.09-9.3,94.67-4.83,7.62-2.74,13.09-2.74,13.09s39.13.77,41.48,0,4-10-3.88-10-15-1.48-13.4-3.63,16.14-65.39,22-71.16,23.8-158.33-3.61-180.52" />
	</defs>
	<path id="leg-far" class="cls-5"
		d="M53.32,514.16s59.48,57,89.41,67.76c-10,2.7-31.89,16.56-51.84,58.14-4.83,7.62-2.74,13.09-2.74,13.09s39.13.77,41.48,0,4-10-3.88-10-15-1.48-13.4-3.63,74.8-58,80.67-63.75-34.86-48.09-62.27-70.28" />
	<g id="Layer_2" data-name="Layer 2">
		<g id="unicycle">
			<g id="tyre">
				<circle class="cls-1" cx="105.11" cy="715.14" r="85" />
			</g>
			<g id="spokes">
				<line class="cls-2" x1="26.19" y1="702" x2="184.02" y2="728.27" />
				<line class="cls-2" x1="118.24" y1="636.23" x2="91.97" y2="794.05" />
				<line class="cls-2" x1="62.46" y1="647.45" x2="147.75" y2="782.83" />
				<line class="cls-2" x1="172.8" y1="672.5" x2="37.42" y2="757.78" />
			</g>
			<g id="bar">
				<line class="cls-3" x1="105.61" y1="720.14" x2="105.61" y2="549.59" />
			</g>
			<g id="seat">
				<path
					d="M74.46,541.64s33.52,19.61,63.37-2.77C148,531.24,158.49,528.8,166,526.54c2.68-.8,1.69-3.81.8-5.62a4.73,4.73,0,0,0-2-2.1c-2.63-1.43-9.05-4.6-14.06-4.6-6.45,0-25.82,14.44-31.41,15.84-4.62,1.17-13.78,4.9-25.72-1.37s-20.15-8.6-23.67-4.89-4.43,12.73,0,15.26S74.46,541.64,74.46,541.64Z" />
			</g>
			<g id="pedals">
				<path d="M109.7,659.16l.82,53.89a4.27,4.27,0,0,1-.6,2.41c-1.52,2.42-5.44,7.11-9.75-.33a4.31,4.31,0,0,1-.57-2.21l3.1-53.9.07-3.37,7,.14Z" />
				<circle class="cls-4" cx="105.07" cy="714.71" r="3" />
				<path
					d="M100.47,770.26l-.85-53.89a4.16,4.16,0,0,1,.6-2.4c1.51-2.43,5.43-7.12,9.75.32a4.18,4.18,0,0,1,.56,2.21l-3.06,53.9-.07,3.37-7-.14Z" />
			</g>
		</g>
		<g id="body">
			<path class="cls-5"
				d="M186.21,514.22c145.1-76.74-23.41-230.48-23.41-230.48s6.26,2.74,4.94-15.71-35.07-30.86-49.34-36.73-16.33-45.78-16.33-45.78H67.23c-.28-4.62-.28-7-.28-7a218,218,0,0,1-20.76,29.09c-11,12.87-19,25.19-23.48,39.07-9.38,29,5.18,89.15,3.13,111.39S-8.07,453.56,3.54,481.35c8.1,21.47,35.43,66.77,180.21,34.32Z" />
			<path class="cls-5"
				d="M123.45,252.43s34.52,26.34,34.76,36.79c.19,8.21-22,37.82-47.68,17.48a103.3,103.3,0,0,1-16.34-23.89s-6.78-5.85-8.61-5.07" />
			<path class="cls-6" d="M96.68,464.26c-3.05-7.23-7.37-14.45-14.33-18.08-7.44-3.87-16.35-2.93-24.67-1.89" />
			<path id="arm-near" class="cls-6"
				d="M42,238.14a182.8,182.8,0,0,0,5.43,50A70,70,0,0,0,53.57,305c5.22,9.49,13.88,16.73,23.38,21.91s19.9,8.5,30.25,11.68c4.81,1.48,9.75,3,13.73,6.08a66.27,66.27,0,0,1,6.14,5.95,54.64,54.64,0,0,0,22.15,13.5,5.83,5.83,0,0,0,2.25.38c2.73-.24,3.77-4.11,2.37-6.46s-4.16-3.48-6.73-4.44a15.2,15.2,0,0,0,11.69,1,11.33,11.33,0,0,0-6.07-7.12,7.46,7.46,0,0,0,8.85-2.14,19.83,19.83,0,0,0-7.9-5.89c2.52,1.67,6.52-.68,6.3-3.7-11.56-5.82-25.32-4.38-38-7-12.21-2.54-23.25-8.85-34.06-15.08-4.65-2.67-9.5-5.54-12.18-10.17a30.57,30.57,0,0,1-3-9.2c-1.4-6.55-2.8-13.13-3.13-19.82a62.89,62.89,0,0,1,4.72-27.13" />
			<path class="cls-6"
				d="M138.15,303.58a8.8,8.8,0,0,0,7.4-3.32,10.08,10.08,0,0,0-10.49,2.53,2.32,2.32,0,0,0,4.08.43" />
			<path class="cls-5" d="M168.56,276.78a1.71,1.71,0,0,0,2.47.78,3.53,3.53,0,0,0,1.35-2.89,5,5,0,0,0-3.64-5" />
			<path class="cls-6"
				d="M241.88,453.82a39.49,39.49,0,0,1-19.12-1.54c.35-2.2,2.49-3.77,4.69-4.18a16.41,16.41,0,0,1,6.62.61l8.82,2a1.48,1.48,0,0,1-1.56,1.38" />
			<path class="cls-6"
				d="M223.73,451.26a31.72,31.72,0,0,0,8.54-.1,7,7,0,0,1,1.58-.13,10.67,10.67,0,0,1,2.15.51,16.59,16.59,0,0,0,5.45.12" />
		</g>
		<g id="head">
			<path class="cls-7"
				d="M148.41,136.53c-10.34,34.68-33.91,58.92-61.35,58.92-37,0-66.95-44-66.95-98.29S52.45,20.94,85.64,4.64c26.1-12.82,39,7,67.76,79.37Z" />
			<ellipse class="cls-8" cx="116.98" cy="166.96" rx="5.7" ry="2.85" />
			<path class="cls-9" d="M118.4,146.29,139,159.08s20.63,3.19-13.76-19.19" />
			<path class="cls-10"
				d="M111.82,57.33a35.76,35.76,0,0,1,17,.06c2.72.68,5.43,1.69,8.24,1.58,1.89-.06,3.77-.63,5.64-.34" />
			<path class="cls-10"
				d="M139.42,51.08c-1.41.91-3.24.21-4.9,0-2.77-.42-5.67.51-8.38-.24a17.13,17.13,0,0,0-3.58-1.08,14.77,14.77,0,0,0-3.64.67c-1.22.24-2.69.08-3.38-.95" />
			<path class="cls-10" d="M136,43.23l-5.24,0-2.07,0a14.31,14.31,0,0,1-2.36-.12c-2.16-.36-4.29-1.74-6.38-1.09" />
			<ellipse class="cls-11" cx="147.37" cy="109.98" rx="26.66" ry="13.39"
				transform="translate(24.54 246.82) rotate(-84.82)" />
			<circle class="cls-8" cx="151.09" cy="121.98" r="7.12" />
			<circle class="cls-12" cx="152.9" cy="125.05" r="1.8" />
			<path class="cls-10" d="M138.36,134.61a6.61,6.61,0,0,0,4.41,3.63,10.38,10.38,0,0,0,1.76.16l2.84.1" />
			<path class="cls-10"
				d="M137.54,133.69a3.79,3.79,0,0,0,.43,3.43,9.33,9.33,0,0,0,2.52,2.45,4.82,4.82,0,0,0,1.26.73,4.59,4.59,0,0,0,1.23.2l4.25.34" />
			<path class="cls-10" d="M138.15,134.42a6.08,6.08,0,0,0,3.5,3.9,16.39,16.39,0,0,0,5.24,1.61" />
			<path class="cls-10"
				d="M138.24,134.37a1.58,1.58,0,0,0-.11,1.13,4.22,4.22,0,0,0,.46,1.07,5.77,5.77,0,0,0,.83,1.23,10.33,10.33,0,0,0,1.72,1.27c.56.38,1.08.82,1.64,1.21a9.71,9.71,0,0,0,3.5,1.49" />
			<ellipse class="cls-11" cx="104.16" cy="109.98" rx="18.52" ry="29.92" />
			<circle class="cls-8" cx="114.13" cy="119.95" r="7.12" />
			<circle class="cls-12" cx="115.75" cy="122.84" r="1.98" />
			<path class="cls-13" d="M111.5,137.45a16.14,16.14,0,0,1-8.59,5.11,37.4,37.4,0,0,1-9.76.71" />
			<path class="cls-13" d="M111.14,137.69a6.87,6.87,0,0,1-3.09,2.22,29,29,0,0,1-14.62,2.21" />
			<path class="cls-14" d="M97.27,161.5a7.55,7.55,0,0,0,2.31,10.09" />
		</g>
		<path id="leg-near" class="cls-5"
			d="M50.89,514.22S73.57,626.78,100.19,663c-10.7,9.13,10.65,53.09-9.3,94.67-4.83,7.62-2.74,13.09-2.74,13.09s39.13.77,41.48,0,4-10-3.88-10-15-1.48-13.4-3.63,16.14-65.39,22-71.16,23.8-158.33-3.61-180.52" />
	</g>
</svg>